<svg width="1440" height="1024" viewBox="0 0 1440 1024" fill="none" xmlns="http://www.w3.org/2000/svg">
<mask id="mask0_506_11208" style="mask-type:alpha" maskUnits="userSpaceOnUse" x="-330" y="-238" width="1956" height="1440">
<path d="M758.66 303.828C758.66 451.088 661.295 570.465 541.19 570.465C421.084 570.465 -329.322 53.9679 -329.322 -93.292C-329.322 -240.552 748.865 -37.8213 868.971 -37.8213C989.077 -37.8213 758.66 156.568 758.66 303.828Z" fill="url(#paint0_linear_506_11208)" style=""/>
<path d="M843.125 934.853C843.125 1082.11 745.76 1201.49 625.655 1201.49C505.549 1201.49 -163.542 1167.17 -163.542 1019.91C-163.542 872.645 -114.084 523.821 6.02185 523.821C126.127 523.821 843.125 787.593 843.125 934.853Z" fill="url(#paint1_radial_506_11208)" style=""/>
<path d="M1089.82 304.232C1413.89 596.92 1264.19 449.832 1542.53 442.422C1586.2 450.833 1660.32 451.233 1607.51 385.542C1541.5 303.427 1562.77 245.429 1480.27 155.965C1397.77 66.5012 1347.52 -24.3926 1222.97 -166.683C1098.41 -308.973 1088.83 -191.679 948.408 -202.798C807.988 -213.917 872.034 -196.26 678.29 10.1974C484.546 216.654 765.755 11.5432 1089.82 304.232Z" fill="#D9D9D9" style="fill:#D9D9D9;fill:color(display-p3 0.8510 0.8510 0.8510);fill-opacity:1;"/>
<path d="M783.875 764.614C350.195 815.672 559.471 799.913 381.712 1014.23C346.623 1041.55 297.498 1097.06 381.712 1100.59C486.98 1105 516.607 1159.21 638.264 1156.06C759.921 1152.91 861.408 1174.97 1050.51 1174.97C1239.62 1174.97 1157.67 1090.5 1258.53 992.169C1359.38 893.835 1303.91 930.395 1276.18 648.629C1248.44 366.864 1217.55 713.555 783.875 764.614Z" fill="#D9D9D9" style="fill:#D9D9D9;fill:color(display-p3 0.8510 0.8510 0.8510);fill-opacity:1;"/>
</mask>
<g mask="url(#mask0_506_11208)">
<line x1="-31.7949" y1="609.548" x2="1479.78" y2="609.548" stroke="white" stroke-opacity="0.16" style="stroke:white;stroke-opacity:0.16;" stroke-width="1.2607"/>
<line x1="-31.7949" y1="932.286" x2="1479.78" y2="932.286" stroke="white" stroke-opacity="0.16" style="stroke:white;stroke-opacity:0.16;" stroke-width="1.2607"/>
<line x1="-31.7949" y1="286.81" x2="1479.78" y2="286.81" stroke="white" stroke-opacity="0.16" style="stroke:white;stroke-opacity:0.16;" stroke-width="1.2607"/>
<line x1="-31.7949" y1="448.178" x2="1479.78" y2="448.178" stroke="white" stroke-opacity="0.16" style="stroke:white;stroke-opacity:0.16;" stroke-width="1.2607"/>
<line x1="-31.7949" y1="770.916" x2="1479.78" y2="770.916" stroke="white" stroke-opacity="0.16" style="stroke:white;stroke-opacity:0.16;" stroke-width="1.2607"/>
<line x1="-31.7949" y1="125.439" x2="1479.78" y2="125.439" stroke="white" stroke-opacity="0.16" style="stroke:white;stroke-opacity:0.16;" stroke-width="1.2607"/>
<line x1="-31.7949" y1="528.863" x2="1479.78" y2="528.863" stroke="white" stroke-opacity="0.16" style="stroke:white;stroke-opacity:0.16;" stroke-width="1.2607"/>
<line x1="-31.7949" y1="851.601" x2="1479.78" y2="851.601" stroke="white" stroke-opacity="0.16" style="stroke:white;stroke-opacity:0.16;" stroke-width="1.2607"/>
<line x1="-31.7949" y1="206.125" x2="1479.78" y2="206.125" stroke="white" stroke-opacity="0.16" style="stroke:white;stroke-opacity:0.16;" stroke-width="1.2607"/>
<line x1="-31.7949" y1="1012.97" x2="1479.78" y2="1012.97" stroke="white" stroke-opacity="0.16" style="stroke:white;stroke-opacity:0.16;" stroke-width="1.2607"/>
<line x1="-31.7949" y1="367.492" x2="1479.78" y2="367.492" stroke="white" stroke-opacity="0.16" style="stroke:white;stroke-opacity:0.16;" stroke-width="1.2607"/>
<line x1="-31.7949" y1="690.233" x2="1479.78" y2="690.233" stroke="white" stroke-opacity="0.16" style="stroke:white;stroke-opacity:0.16;" stroke-width="1.2607"/>
<line x1="-31.7949" y1="44.7544" x2="1479.78" y2="44.7544" stroke="white" stroke-opacity="0.16" style="stroke:white;stroke-opacity:0.16;" stroke-width="1.2607"/>
<line x1="15.48" y1="-64.2952" x2="15.4799" y2="1103.11" stroke="white" stroke-opacity="0.16" style="stroke:white;stroke-opacity:0.16;" stroke-width="1.2607"/>
<line x1="660.96" y1="-64.2952" x2="660.96" y2="1103.11" stroke="white" stroke-opacity="0.16" style="stroke:white;stroke-opacity:0.16;" stroke-width="1.2607"/>
<line x1="338.22" y1="-64.2953" x2="338.22" y2="1103.11" stroke="white" stroke-opacity="0.16" style="stroke:white;stroke-opacity:0.16;" stroke-width="1.2607"/>
<line x1="983.697" y1="-64.2952" x2="983.697" y2="1103.11" stroke="white" stroke-opacity="0.16" style="stroke:white;stroke-opacity:0.16;" stroke-width="1.2607"/>
<line x1="1306.44" y1="-64.2952" x2="1306.44" y2="1103.11" stroke="white" stroke-opacity="0.16" style="stroke:white;stroke-opacity:0.16;" stroke-width="1.2607"/>
<line x1="176.851" y1="-64.2952" x2="176.851" y2="1103.11" stroke="white" stroke-opacity="0.16" style="stroke:white;stroke-opacity:0.16;" stroke-width="1.2607"/>
<line x1="822.326" y1="-64.2952" x2="822.326" y2="1103.11" stroke="white" stroke-opacity="0.16" style="stroke:white;stroke-opacity:0.16;" stroke-width="1.2607"/>
<line x1="499.591" y1="-64.2952" x2="499.591" y2="1103.11" stroke="white" stroke-opacity="0.16" style="stroke:white;stroke-opacity:0.16;" stroke-width="1.2607"/>
<line x1="1145.07" y1="-64.2953" x2="1145.07" y2="1103.11" stroke="white" stroke-opacity="0.16" style="stroke:white;stroke-opacity:0.16;" stroke-width="1.2607"/>
<line x1="96.1675" y1="-64.2952" x2="96.1674" y2="1103.11" stroke="white" stroke-opacity="0.16" style="stroke:white;stroke-opacity:0.16;" stroke-width="1.2607"/>
<line x1="741.644" y1="-64.2953" x2="741.644" y2="1103.11" stroke="white" stroke-opacity="0.16" style="stroke:white;stroke-opacity:0.16;" stroke-width="1.2607"/>
<line x1="418.904" y1="-64.2952" x2="418.904" y2="1103.11" stroke="white" stroke-opacity="0.16" style="stroke:white;stroke-opacity:0.16;" stroke-width="1.2607"/>
<line x1="1064.38" y1="-64.2952" x2="1064.38" y2="1103.11" stroke="white" stroke-opacity="0.16" style="stroke:white;stroke-opacity:0.16;" stroke-width="1.2607"/>
<line x1="1387.12" y1="-64.2952" x2="1387.12" y2="1103.11" stroke="white" stroke-opacity="0.16" style="stroke:white;stroke-opacity:0.16;" stroke-width="1.2607"/>
<line x1="257.537" y1="-64.2952" x2="257.537" y2="1103.11" stroke="white" stroke-opacity="0.16" style="stroke:white;stroke-opacity:0.16;" stroke-width="1.2607"/>
<line x1="903.013" y1="-64.2952" x2="903.013" y2="1103.11" stroke="white" stroke-opacity="0.16" style="stroke:white;stroke-opacity:0.16;" stroke-width="1.2607"/>
<line x1="580.273" y1="-64.2952" x2="580.273" y2="1103.11" stroke="white" stroke-opacity="0.16" style="stroke:white;stroke-opacity:0.16;" stroke-width="1.2607"/>
<line x1="1225.75" y1="-64.2952" x2="1225.75" y2="1103.11" stroke="white" stroke-opacity="0.16" style="stroke:white;stroke-opacity:0.16;" stroke-width="1.2607"/>
<g opacity="0.7">
<rect x="822.385" y="770.859" width="80.2262" height="80.2262" fill="#554B13" fill-opacity="0.36" style="fill:#554B13;fill:color(display-p3 0.3342 0.2954 0.0754);fill-opacity:0.36;"/>
<rect x="418.963" y="770.859" width="80.2262" height="80.2262" fill="#4E520A" fill-opacity="0.25" style="fill:#4E520A;fill:color(display-p3 0.3066 0.3207 0.0376);fill-opacity:0.25;"/>
<rect x="1145.58" y="206.983" width="80.2262" height="79.0801" fill="#2C2902" fill-opacity="0.11" style="fill:#2C2902;fill:color(display-p3 0.1719 0.1610 0.0095);fill-opacity:0.11;"/>
<rect x="499.188" y="126.757" width="80.2262" height="79.0801" fill="#61630A" fill-opacity="0.31" style="fill:#61630A;fill:color(display-p3 0.3812 0.3870 0.0383);fill-opacity:0.31;"/>
<rect x="1064.21" y="287.209" width="80.2262" height="79.0801" fill="#2C2902" fill-opacity="0.11" style="fill:#2C2902;fill:color(display-p3 0.1719 0.1610 0.0095);fill-opacity:0.11;"/>
<rect x="417.816" y="206.983" width="80.2262" height="79.0801" fill="#61630A" fill-opacity="0.31" style="fill:#61630A;fill:color(display-p3 0.3812 0.3870 0.0383);fill-opacity:0.31;"/>
<rect x="1064.21" y="206.983" width="80.2262" height="79.0801" fill="#2C2902" fill-opacity="0.11" style="fill:#2C2902;fill:color(display-p3 0.1719 0.1610 0.0095);fill-opacity:0.11;"/>
<rect x="417.816" y="126.757" width="80.2262" height="79.0801" fill="#61630A" fill-opacity="0.31" style="fill:#61630A;fill:color(display-p3 0.3812 0.3870 0.0383);fill-opacity:0.31;"/>
<rect x="338.736" y="770.859" width="80.2262" height="80.2262" fill="#4E520A" fill-opacity="0.25" style="fill:#4E520A;fill:color(display-p3 0.3066 0.3207 0.0376);fill-opacity:0.25;"/>
<rect x="338.736" y="851.085" width="80.2262" height="81.3723" fill="#4E520A" fill-opacity="0.25" style="fill:#4E520A;fill:color(display-p3 0.3066 0.3207 0.0376);fill-opacity:0.25;"/>
<rect x="177.137" y="690.633" width="80.2262" height="80.2262" fill="#4E520A" fill-opacity="0.25" style="fill:#4E520A;fill:color(display-p3 0.3066 0.3207 0.0376);fill-opacity:0.25;"/>
<rect x="983.984" y="45.3845" width="80.2262" height="80.2262" fill="#555106" fill-opacity="0.61" style="fill:#555106;fill:color(display-p3 0.3346 0.3191 0.0254);fill-opacity:0.61;"/>
<rect x="903.758" y="-46.3025" width="80.2262" height="80.2262" fill="#555106" fill-opacity="0.61" style="fill:#555106;fill:color(display-p3 0.3346 0.3191 0.0254);fill-opacity:0.61;"/>
<rect x="902.881" y="44.2384" width="80.2262" height="81.3723" fill="#555106" fill-opacity="0.61" style="fill:#555106;fill:color(display-p3 0.3346 0.3191 0.0254);fill-opacity:0.61;"/>
<rect x="177.139" y="124.465" width="81.3723" height="82.5184" fill="#334505" fill-opacity="0.24" style="fill:#334505;fill:color(display-p3 0.1988 0.2696 0.0198);fill-opacity:0.24;"/>
<rect x="95.7656" y="44.2384" width="81.3723" height="80.2262" fill="#334505" fill-opacity="0.24" style="fill:#334505;fill:color(display-p3 0.1988 0.2696 0.0198);fill-opacity:0.24;"/>
<rect x="15.5391" y="45.3845" width="81.3723" height="80.2262" fill="#334505" fill-opacity="0.24" style="fill:#334505;fill:color(display-p3 0.1988 0.2696 0.0198);fill-opacity:0.24;"/>
<rect x="95.7656" y="124.465" width="81.3723" height="82.5184" fill="#334505" fill-opacity="0.24" style="fill:#334505;fill:color(display-p3 0.1988 0.2696 0.0198);fill-opacity:0.24;"/>
<rect x="418.963" y="-35.9877" width="81.3723" height="80.2262" fill="#434307" style="fill:#434307;fill:color(display-p3 0.2614 0.2614 0.0289);fill-opacity:1;"/>
<rect x="177.139" y="286.063" width="80.2262" height="81.3723" fill="#334505" fill-opacity="0.24" style="fill:#334505;fill:color(display-p3 0.1988 0.2696 0.0198);fill-opacity:0.24;"/>
<rect x="1145.58" y="690.633" width="80.2262" height="80.2262" fill="#626808" fill-opacity="0.26" style="fill:#626808;fill:color(display-p3 0.3831 0.4083 0.0309);fill-opacity:0.26;"/>
<rect x="1225.81" y="770.859" width="80.2262" height="80.2262" fill="#626808" fill-opacity="0.26" style="fill:#626808;fill:color(display-p3 0.3831 0.4083 0.0309);fill-opacity:0.26;"/>
</g>
</g>
<defs>
<linearGradient id="paint0_linear_506_11208" x1="190.085" y1="-19.5411" x2="644.567" y2="222.513" gradientUnits="userSpaceOnUse">
<stop stop-color="white" style="stop-color:white;stop-opacity:1;"/>
<stop offset="1" stop-color="white" stop-opacity="0" style="stop-color:none;stop-opacity:0;"/>
</linearGradient>
<radialGradient id="paint1_radial_506_11208" cx="0" cy="0" r="1" gradientUnits="userSpaceOnUse" gradientTransform="translate(155.414 941.112) rotate(-29.3932) scale(777.019 1335.47)">
<stop stop-color="white" style="stop-color:white;stop-opacity:1;"/>
<stop offset="1" stop-color="white" stop-opacity="0" style="stop-color:none;stop-opacity:0;"/>
</radialGradient>
</defs>
</svg>
